<?xml version="1.0" standalone="no"?>
<!DOCTYPE svg PUBLIC "-//W3C//DTD SVG 20010904//EN"
 "http://www.w3.org/TR/2001/REC-SVG-20010904/DTD/svg10.dtd">
<svg version="1.0" xmlns="http://www.w3.org/2000/svg"
 width="90.000000pt" height="90.000000pt" viewBox="0 0 90.000000 90.000000"
 preserveAspectRatio="xMidYMid meet">
<metadata>
Created by potrace 1.14, written by Peter Selinger 2001-2017
</metadata>
<g transform="translate(0.000000,90.000000) scale(0.100000,-0.100000)"
fill="#000000" stroke="none">
<path d="M326 784 c-13 -15 -31 -35 -40 -45 -13 -15 -30 -19 -86 -19 -113 0
-110 9 -110 -285 0 -232 1 -246 20 -265 19 -19 33 -20 340 -20 307 0 321 1
340 20 19 19 20 33 20 265 0 294 3 285 -110 285 -74 0 -81 4 -123 64 -17 25
-21 26 -123 26 -100 0 -106 -1 -128 -26z m220 -147 c98 -51 140 -176 93 -273
-72 -150 -273 -164 -366 -26 -66 98 -24 243 85 299 52 26 139 26 188 0z m188
17 c9 -3 16 -14 16 -24 0 -20 -23 -32 -45 -24 -18 7 -20 40 -2 47 6 3 13 6 14
6 1 1 8 -2 17 -5z"/>
<path d="M378 577 c-49 -29 -67 -56 -74 -111 -12 -85 62 -166 152 -166 45 0
102 37 125 82 38 75 11 161 -62 199 -50 25 -95 24 -141 -4z"/>
<path d="M157 773 c-16 -16 -4 -23 38 -23 35 0 43 3 39 15 -6 15 -64 21 -77 8z"/>
</g>
</svg>
